<svg width="742" height="60" viewBox="0 0 742 60" fill="none" xmlns="http://www.w3.org/2000/svg">
<path d="M1.044 35L6.084 9.8H11.952L6.912 35H1.044ZM20.7405 42.272C18.8685 42.272 17.1405 42.056 15.5565 41.624C13.9965 41.192 12.6525 40.556 11.5245 39.716L14.1885 35.648C14.9565 36.272 15.9405 36.776 17.1405 37.16C18.3645 37.544 19.6485 37.736 20.9925 37.736C22.9365 37.736 24.3885 37.316 25.3485 36.476C26.3325 35.636 26.9925 34.388 27.3285 32.732L28.0125 29.24L29.3085 24.704L30.1725 19.808L30.9645 15.632H36.3285L33.1245 31.76C32.3805 35.48 30.9645 38.156 28.8765 39.788C26.8125 41.444 24.1005 42.272 20.7405 42.272ZM21.5685 34.064C19.9845 34.064 18.5445 33.74 17.2485 33.092C15.9525 32.444 14.9205 31.52 14.1525 30.32C13.3845 29.096 13.0005 27.632 13.0005 25.928C13.0005 24.44 13.2645 23.06 13.7925 21.788C14.3445 20.516 15.1005 19.4 16.0605 18.44C17.0445 17.456 18.1845 16.7 19.4805 16.172C20.8005 15.62 22.2405 15.344 23.8005 15.344C25.2165 15.344 26.5005 15.608 27.6525 16.136C28.8045 16.664 29.6925 17.516 30.3165 18.692C30.9645 19.868 31.2045 21.44 31.0365 23.408C30.8925 25.544 30.4245 27.416 29.6325 29.024C28.8405 30.608 27.7605 31.844 26.3925 32.732C25.0485 33.62 23.4405 34.064 21.5685 34.064ZM23.0805 29.456C24.1845 29.456 25.1565 29.216 25.9965 28.736C26.8365 28.256 27.4965 27.596 27.9765 26.756C28.4565 25.892 28.6965 24.908 28.6965 23.804C28.6965 22.628 28.3125 21.704 27.5445 21.032C26.7765 20.336 25.7085 19.988 24.3405 19.988C23.2365 19.988 22.2525 20.228 21.3885 20.708C20.5485 21.188 19.8765 21.86 19.3725 22.724C18.8925 23.564 18.6525 24.536 18.6525 25.64C18.6525 26.816 19.0485 27.752 19.8405 28.448C20.6325 29.12 21.7125 29.456 23.0805 29.456ZM52.8235 15.344C54.4795 15.344 55.8835 15.692 57.0355 16.388C58.1875 17.06 59.0035 18.056 59.4835 19.376C59.9635 20.696 60.0115 22.328 59.6275 24.272L57.4675 35H51.8515L53.9395 24.632C54.2275 23.216 54.1075 22.124 53.5795 21.356C53.0755 20.588 52.1395 20.204 50.7715 20.204C49.3555 20.204 48.1675 20.612 47.2075 21.428C46.2715 22.244 45.6235 23.492 45.2635 25.172L43.3195 35H37.7035L41.5555 15.632H46.8835L45.7675 21.104L44.9755 19.448C45.9115 18.032 47.0635 17 48.4315 16.352C49.8235 15.68 51.2875 15.344 52.8235 15.344ZM62.5942 35L66.4462 15.632H72.0262L68.1742 35H62.5942ZM70.1902 12.932C69.2062 12.932 68.4142 12.656 67.8142 12.104C67.2142 11.528 66.9142 10.832 66.9142 10.016C66.9142 9.056 67.2502 8.264 67.9222 7.64C68.6182 6.992 69.5182 6.668 70.6222 6.668C71.6062 6.668 72.3982 6.944 72.9982 7.496C73.6222 8.024 73.9342 8.684 73.9342 9.476C73.9342 10.508 73.5862 11.348 72.8902 11.996C72.2182 12.62 71.3182 12.932 70.1902 12.932ZM81.2711 35.288C79.8791 35.288 78.6911 35.012 77.7071 34.46C76.7231 33.884 76.0151 33.068 75.5831 32.012C75.1751 30.932 75.1151 29.66 75.4031 28.196L78.7511 11.348H84.3671L81.0191 28.16C80.8751 28.976 80.9591 29.624 81.2711 30.104C81.5831 30.584 82.1591 30.824 82.9991 30.824C83.3831 30.824 83.7671 30.764 84.1511 30.644C84.5591 30.524 84.9311 30.356 85.2671 30.14L86.0951 34.136C85.3991 34.568 84.6311 34.868 83.7911 35.036C82.9511 35.204 82.1111 35.288 81.2711 35.288ZM73.9631 20.384L74.8271 16.064H88.2551L87.3911 20.384H73.9631ZM89.0317 35L92.8837 15.632H98.4637L94.6117 35H89.0317ZM96.6277 12.932C95.6437 12.932 94.8517 12.656 94.2517 12.104C93.6517 11.528 93.3517 10.832 93.3517 10.016C93.3517 9.056 93.6877 8.264 94.3597 7.64C95.0557 6.992 95.9557 6.668 97.0597 6.668C98.0437 6.668 98.8357 6.944 99.4357 7.496C100.06 8.024 100.372 8.684 100.372 9.476C100.372 10.508 100.024 11.348 99.3277 11.996C98.6557 12.62 97.7557 12.932 96.6277 12.932ZM114.945 15.344C116.601 15.344 118.005 15.692 119.157 16.388C120.309 17.06 121.125 18.056 121.605 19.376C122.085 20.696 122.133 22.328 121.749 24.272L119.589 35H113.973L116.061 24.632C116.349 23.216 116.229 22.124 115.701 21.356C115.197 20.588 114.261 20.204 112.893 20.204C111.477 20.204 110.289 20.612 109.329 21.428C108.393 22.244 107.745 23.492 107.385 25.172L105.441 35H99.8246L103.677 15.632H109.005L107.889 21.104L107.097 19.448C108.033 18.032 109.185 17 110.553 16.352C111.945 15.68 113.409 15.344 114.945 15.344ZM133.03 42.272C131.158 42.272 129.43 42.056 127.846 41.624C126.286 41.192 124.942 40.556 123.814 39.716L126.478 35.648C127.246 36.272 128.23 36.776 129.43 37.16C130.654 37.544 131.938 37.736 133.282 37.736C135.226 37.736 136.678 37.316 137.638 36.476C138.622 35.636 139.282 34.388 139.618 32.732L140.302 29.24L141.598 24.704L142.462 19.808L143.254 15.632H148.618L145.414 31.76C144.67 35.48 143.254 38.156 141.166 39.788C139.102 41.444 136.39 42.272 133.03 42.272ZM133.858 34.064C132.274 34.064 130.834 33.74 129.538 33.092C128.242 32.444 127.21 31.52 126.442 30.32C125.674 29.096 125.29 27.632 125.29 25.928C125.29 24.44 125.554 23.06 126.082 21.788C126.634 20.516 127.39 19.4 128.35 18.44C129.334 17.456 130.474 16.7 131.77 16.172C133.09 15.62 134.53 15.344 136.09 15.344C137.506 15.344 138.79 15.608 139.942 16.136C141.094 16.664 141.982 17.516 142.606 18.692C143.254 19.868 143.494 21.44 143.326 23.408C143.182 25.544 142.714 27.416 141.922 29.024C141.13 30.608 140.05 31.844 138.682 32.732C137.338 33.62 135.73 34.064 133.858 34.064ZM135.37 29.456C136.474 29.456 137.446 29.216 138.286 28.736C139.126 28.256 139.786 27.596 140.266 26.756C140.746 25.892 140.986 24.908 140.986 23.804C140.986 22.628 140.602 21.704 139.834 21.032C139.066 20.336 137.998 19.988 136.63 19.988C135.526 19.988 134.542 20.228 133.678 20.708C132.838 21.188 132.166 21.86 131.662 22.724C131.182 23.564 130.942 24.536 130.942 25.64C130.942 26.816 131.338 27.752 132.13 28.448C132.922 29.12 134.002 29.456 135.37 29.456ZM168.936 35.288C167.448 35.288 166.068 34.952 164.796 34.28C163.524 33.584 162.504 32.588 161.736 31.292C160.968 29.996 160.584 28.436 160.584 26.612C160.584 24.98 160.848 23.48 161.376 22.112C161.928 20.744 162.696 19.556 163.68 18.548C164.664 17.54 165.804 16.76 167.1 16.208C168.396 15.632 169.788 15.344 171.276 15.344C172.884 15.344 174.264 15.644 175.416 16.244C176.568 16.844 177.42 17.78 177.972 19.052C178.548 20.3 178.752 21.92 178.584 23.912C178.464 26.192 177.996 28.196 177.18 29.924C176.364 31.628 175.26 32.948 173.868 33.884C172.5 34.82 170.856 35.288 168.936 35.288ZM170.664 30.644C171.768 30.644 172.74 30.38 173.58 29.852C174.444 29.3 175.116 28.556 175.596 27.62C176.1 26.66 176.352 25.544 176.352 24.272C176.352 22.952 175.956 21.908 175.164 21.14C174.396 20.372 173.316 19.988 171.924 19.988C170.844 19.988 169.872 20.264 169.008 20.816C168.144 21.344 167.46 22.088 166.956 23.048C166.476 23.984 166.236 25.088 166.236 26.36C166.236 27.68 166.62 28.724 167.388 29.492C168.18 30.26 169.272 30.644 170.664 30.644ZM174.516 35L175.272 31.148L176.532 25.388L177.288 19.628L178.08 15.632H183.696L179.844 35H174.516ZM195.599 35L200.639 9.8H210.899C214.043 9.8 216.467 10.484 218.171 11.852C219.899 13.22 220.763 15.14 220.763 17.612C220.763 19.724 220.259 21.56 219.251 23.12C218.267 24.656 216.851 25.844 215.003 26.684C213.179 27.524 211.019 27.944 208.523 27.944H200.315L203.375 25.388L201.467 35H195.599ZM211.799 35L206.651 25.856H212.771L217.955 35H211.799ZM203.231 26.072L201.215 23.3H208.739C210.683 23.3 212.183 22.868 213.239 22.004C214.319 21.116 214.859 19.832 214.859 18.152C214.859 16.928 214.439 16.028 213.599 15.452C212.783 14.852 211.631 14.552 210.143 14.552H203.051L206.111 11.708L203.231 26.072ZM232.007 35.288C229.991 35.288 228.239 34.928 226.751 34.208C225.287 33.488 224.147 32.48 223.331 31.184C222.515 29.888 222.107 28.364 222.107 26.612C222.107 24.452 222.587 22.532 223.547 20.852C224.531 19.148 225.875 17.804 227.579 16.82C229.307 15.836 231.287 15.344 233.519 15.344C235.415 15.344 237.047 15.704 238.415 16.424C239.783 17.12 240.839 18.104 241.583 19.376C242.351 20.624 242.735 22.124 242.735 23.876C242.735 24.38 242.699 24.884 242.627 25.388C242.579 25.892 242.507 26.372 242.411 26.828H226.391L226.967 23.552H239.783L237.479 24.56C237.671 23.48 237.611 22.58 237.299 21.86C236.987 21.116 236.483 20.552 235.787 20.168C235.091 19.76 234.251 19.556 233.267 19.556C232.043 19.556 230.999 19.856 230.135 20.456C229.295 21.032 228.659 21.836 228.227 22.868C227.795 23.9 227.579 25.064 227.579 26.36C227.579 27.848 227.987 28.964 228.803 29.708C229.643 30.428 230.903 30.788 232.583 30.788C233.567 30.788 234.515 30.632 235.427 30.32C236.339 30.008 237.119 29.564 237.767 28.988L240.107 32.696C238.979 33.584 237.707 34.244 236.291 34.676C234.899 35.084 233.471 35.288 232.007 35.288ZM249.221 35L244.937 15.632H250.481L254.045 32.3H251.165L261.425 15.632H267.041L255.017 35H249.221ZM275.07 35.288C273.102 35.288 271.386 34.928 269.922 34.208C268.458 33.488 267.318 32.48 266.502 31.184C265.71 29.888 265.314 28.364 265.314 26.612C265.314 24.452 265.818 22.532 266.826 20.852C267.834 19.148 269.214 17.804 270.966 16.82C272.742 15.836 274.758 15.344 277.014 15.344C279.006 15.344 280.722 15.704 282.162 16.424C283.626 17.144 284.754 18.152 285.546 19.448C286.362 20.72 286.77 22.244 286.77 24.02C286.77 26.156 286.266 28.076 285.258 29.78C284.25 31.484 282.87 32.828 281.118 33.812C279.366 34.796 277.35 35.288 275.07 35.288ZM275.43 30.68C276.534 30.68 277.506 30.416 278.346 29.888C279.21 29.336 279.882 28.58 280.362 27.62C280.842 26.66 281.082 25.544 281.082 24.272C281.082 22.976 280.698 21.932 279.93 21.14C279.162 20.348 278.082 19.952 276.69 19.952C275.586 19.952 274.602 20.228 273.738 20.78C272.898 21.308 272.226 22.052 271.722 23.012C271.242 23.972 271.002 25.088 271.002 26.36C271.002 27.68 271.386 28.736 272.154 29.528C272.922 30.296 274.014 30.68 275.43 30.68ZM288.508 35L293.836 8.288H299.452L294.124 35H288.508ZM307.616 35.288C306.032 35.288 304.664 34.952 303.512 34.28C302.36 33.584 301.544 32.576 301.064 31.256C300.584 29.936 300.536 28.304 300.92 26.36L303.044 15.632H308.66L306.608 26C306.32 27.416 306.428 28.508 306.932 29.276C307.46 30.044 308.384 30.428 309.704 30.428C311.096 30.428 312.26 30.02 313.196 29.204C314.156 28.388 314.792 27.14 315.104 25.46L317.084 15.632H322.7L318.848 35H313.52L314.6 29.528L315.392 31.184C314.48 32.6 313.34 33.644 311.972 34.316C310.604 34.964 309.152 35.288 307.616 35.288ZM331.935 35.288C330.543 35.288 329.355 35.012 328.371 34.46C327.387 33.884 326.679 33.068 326.247 32.012C325.839 30.932 325.779 29.66 326.067 28.196L329.415 11.348H335.031L331.683 28.16C331.539 28.976 331.623 29.624 331.935 30.104C332.247 30.584 332.823 30.824 333.663 30.824C334.047 30.824 334.431 30.764 334.815 30.644C335.223 30.524 335.595 30.356 335.931 30.14L336.759 34.136C336.063 34.568 335.295 34.868 334.455 35.036C333.615 35.204 332.775 35.288 331.935 35.288ZM324.627 20.384L325.491 16.064H338.919L338.055 20.384H324.627ZM339.696 35L343.548 15.632H349.128L345.276 35H339.696ZM347.292 12.932C346.308 12.932 345.516 12.656 344.916 12.104C344.316 11.528 344.016 10.832 344.016 10.016C344.016 9.056 344.352 8.264 345.024 7.64C345.72 6.992 346.62 6.668 347.724 6.668C348.708 6.668 349.5 6.944 350.1 7.496C350.724 8.024 351.036 8.684 351.036 9.476C351.036 10.508 350.688 11.348 349.992 11.996C349.32 12.62 348.42 12.932 347.292 12.932ZM360.605 35.288C358.637 35.288 356.921 34.928 355.457 34.208C353.993 33.488 352.853 32.48 352.037 31.184C351.245 29.888 350.849 28.364 350.849 26.612C350.849 24.452 351.353 22.532 352.361 20.852C353.369 19.148 354.749 17.804 356.501 16.82C358.277 15.836 360.293 15.344 362.549 15.344C364.541 15.344 366.257 15.704 367.697 16.424C369.161 17.144 370.289 18.152 371.081 19.448C371.897 20.72 372.305 22.244 372.305 24.02C372.305 26.156 371.801 28.076 370.793 29.78C369.785 31.484 368.405 32.828 366.653 33.812C364.901 34.796 362.885 35.288 360.605 35.288ZM360.965 30.68C362.069 30.68 363.041 30.416 363.881 29.888C364.745 29.336 365.417 28.58 365.897 27.62C366.377 26.66 366.617 25.544 366.617 24.272C366.617 22.976 366.233 21.932 365.465 21.14C364.697 20.348 363.617 19.952 362.225 19.952C361.121 19.952 360.137 20.228 359.273 20.78C358.433 21.308 357.761 22.052 357.257 23.012C356.777 23.972 356.537 25.088 356.537 26.36C356.537 27.68 356.921 28.736 357.689 29.528C358.457 30.296 359.549 30.68 360.965 30.68ZM389.163 15.344C390.819 15.344 392.223 15.692 393.375 16.388C394.527 17.06 395.343 18.056 395.823 19.376C396.303 20.696 396.351 22.328 395.967 24.272L393.807 35H388.191L390.279 24.632C390.567 23.216 390.447 22.124 389.919 21.356C389.415 20.588 388.479 20.204 387.111 20.204C385.695 20.204 384.507 20.612 383.547 21.428C382.611 22.244 381.963 23.492 381.603 25.172L379.659 35H374.043L377.895 15.632H383.223L382.107 21.104L381.315 19.448C382.251 18.032 383.403 17 384.771 16.352C386.163 15.68 387.627 15.344 389.163 15.344ZM409.129 35L412.981 15.632H418.561L414.709 35H409.129ZM416.725 12.932C415.741 12.932 414.949 12.656 414.349 12.104C413.749 11.528 413.449 10.832 413.449 10.016C413.449 9.056 413.785 8.264 414.457 7.64C415.153 6.992 416.053 6.668 417.157 6.668C418.141 6.668 418.933 6.944 419.533 7.496C420.157 8.024 420.469 8.684 420.469 9.476C420.469 10.508 420.121 11.348 419.425 11.996C418.753 12.62 417.853 12.932 416.725 12.932ZM435.042 15.344C436.698 15.344 438.102 15.692 439.254 16.388C440.406 17.06 441.222 18.056 441.702 19.376C442.182 20.696 442.23 22.328 441.846 24.272L439.686 35H434.07L436.158 24.632C436.446 23.216 436.326 22.124 435.798 21.356C435.294 20.588 434.358 20.204 432.99 20.204C431.574 20.204 430.386 20.612 429.426 21.428C428.49 22.244 427.842 23.492 427.482 25.172L425.538 35H419.922L423.774 15.632H429.102L427.986 21.104L427.194 19.448C428.13 18.032 429.282 17 430.65 16.352C432.042 15.68 433.506 15.344 435.042 15.344ZM477.688 9.8H483.52L478.48 35H472.648L477.688 9.8ZM461.236 35H455.368L460.408 9.8H466.276L461.236 35ZM475.168 24.668H462.892L463.864 19.736H476.14L475.168 24.668ZM484.442 35L489.482 9.8H499.742C502.886 9.8 505.31 10.484 507.014 11.852C508.742 13.22 509.606 15.14 509.606 17.612C509.606 19.724 509.102 21.56 508.094 23.12C507.11 24.656 505.694 25.844 503.846 26.684C502.022 27.524 499.862 27.944 497.366 27.944H489.158L492.218 25.388L490.31 35H484.442ZM500.642 35L495.494 25.856H501.614L506.798 35H500.642ZM492.074 26.072L490.058 23.3H497.582C499.526 23.3 501.026 22.868 502.082 22.004C503.162 21.116 503.702 19.832 503.702 18.152C503.702 16.928 503.282 16.028 502.442 15.452C501.626 14.852 500.474 14.552 498.986 14.552H491.894L494.954 11.708L492.074 26.072ZM521.11 35L526.15 9.8H532.018L526.978 35H521.11ZM547.683 15.344C549.339 15.344 550.743 15.692 551.895 16.388C553.047 17.06 553.863 18.056 554.343 19.376C554.823 20.696 554.871 22.328 554.487 24.272L552.327 35H546.711L548.799 24.632C549.087 23.216 548.967 22.124 548.439 21.356C547.935 20.588 546.999 20.204 545.631 20.204C544.215 20.204 543.027 20.612 542.067 21.428C541.131 22.244 540.483 23.492 540.123 25.172L538.179 35H532.563L536.415 15.632H541.743L540.627 21.104L539.835 19.448C540.771 18.032 541.923 17 543.291 16.352C544.683 15.68 546.147 15.344 547.683 15.344ZM572.574 15.344C574.23 15.344 575.634 15.692 576.786 16.388C577.938 17.06 578.754 18.056 579.234 19.376C579.714 20.696 579.762 22.328 579.378 24.272L577.218 35H571.602L573.69 24.632C573.978 23.216 573.858 22.124 573.33 21.356C572.826 20.588 571.89 20.204 570.522 20.204C569.106 20.204 567.918 20.612 566.958 21.428C566.022 22.244 565.374 23.492 565.014 25.172L563.07 35H557.454L561.306 15.632H566.634L565.518 21.104L564.726 19.448C565.662 18.032 566.814 17 568.182 16.352C569.574 15.68 571.038 15.344 572.574 15.344ZM592.53 35.288C590.562 35.288 588.846 34.928 587.382 34.208C585.918 33.488 584.778 32.48 583.962 31.184C583.17 29.888 582.774 28.364 582.774 26.612C582.774 24.452 583.278 22.532 584.286 20.852C585.294 19.148 586.674 17.804 588.426 16.82C590.202 15.836 592.218 15.344 594.474 15.344C596.466 15.344 598.182 15.704 599.622 16.424C601.086 17.144 602.214 18.152 603.006 19.448C603.822 20.72 604.23 22.244 604.23 24.02C604.23 26.156 603.726 28.076 602.718 29.78C601.71 31.484 600.33 32.828 598.578 33.812C596.826 34.796 594.81 35.288 592.53 35.288ZM592.89 30.68C593.994 30.68 594.966 30.416 595.806 29.888C596.67 29.336 597.342 28.58 597.822 27.62C598.302 26.66 598.542 25.544 598.542 24.272C598.542 22.976 598.158 21.932 597.39 21.14C596.622 20.348 595.542 19.952 594.15 19.952C593.046 19.952 592.062 20.228 591.198 20.78C590.358 21.308 589.686 22.052 589.182 23.012C588.702 23.972 588.462 25.088 588.462 26.36C588.462 27.68 588.846 28.736 589.614 29.528C590.382 30.296 591.474 30.68 592.89 30.68ZM610.698 35L606.414 15.632H611.958L615.522 32.3H612.642L622.902 15.632H628.518L616.494 35H610.698ZM635.178 35.288C633.69 35.288 632.31 34.952 631.038 34.28C629.766 33.584 628.746 32.588 627.978 31.292C627.21 29.996 626.826 28.436 626.826 26.612C626.826 24.98 627.09 23.48 627.618 22.112C628.17 20.744 628.938 19.556 629.922 18.548C630.906 17.54 632.046 16.76 633.342 16.208C634.638 15.632 636.03 15.344 637.518 15.344C639.126 15.344 640.506 15.644 641.658 16.244C642.81 16.844 643.662 17.78 644.214 19.052C644.79 20.3 644.994 21.92 644.826 23.912C644.706 26.192 644.238 28.196 643.422 29.924C642.606 31.628 641.502 32.948 640.11 33.884C638.742 34.82 637.098 35.288 635.178 35.288ZM636.906 30.644C638.01 30.644 638.982 30.38 639.822 29.852C640.686 29.3 641.358 28.556 641.838 27.62C642.342 26.66 642.594 25.544 642.594 24.272C642.594 22.952 642.198 21.908 641.406 21.14C640.638 20.372 639.558 19.988 638.166 19.988C637.086 19.988 636.114 20.264 635.25 20.816C634.386 21.344 633.702 22.088 633.198 23.048C632.718 23.984 632.478 25.088 632.478 26.36C632.478 27.68 632.862 28.724 633.63 29.492C634.422 30.26 635.514 30.644 636.906 30.644ZM640.758 35L641.514 31.148L642.774 25.388L643.53 19.628L644.322 15.632H649.938L646.086 35H640.758ZM659.17 35.288C657.778 35.288 656.59 35.012 655.606 34.46C654.622 33.884 653.914 33.068 653.482 32.012C653.074 30.932 653.014 29.66 653.302 28.196L656.65 11.348H662.266L658.918 28.16C658.774 28.976 658.858 29.624 659.17 30.104C659.482 30.584 660.058 30.824 660.898 30.824C661.282 30.824 661.666 30.764 662.05 30.644C662.458 30.524 662.83 30.356 663.166 30.14L663.994 34.136C663.298 34.568 662.53 34.868 661.69 35.036C660.85 35.204 660.01 35.288 659.17 35.288ZM651.862 20.384L652.726 16.064H666.154L665.29 20.384H651.862ZM666.93 35L670.782 15.632H676.362L672.51 35H666.93ZM674.526 12.932C673.542 12.932 672.75 12.656 672.15 12.104C671.55 11.528 671.25 10.832 671.25 10.016C671.25 9.056 671.586 8.264 672.258 7.64C672.954 6.992 673.854 6.668 674.958 6.668C675.942 6.668 676.734 6.944 677.334 7.496C677.958 8.024 678.27 8.684 678.27 9.476C678.27 10.508 677.922 11.348 677.226 11.996C676.554 12.62 675.654 12.932 674.526 12.932ZM687.839 35.288C685.871 35.288 684.155 34.928 682.691 34.208C681.227 33.488 680.087 32.48 679.271 31.184C678.479 29.888 678.083 28.364 678.083 26.612C678.083 24.452 678.587 22.532 679.595 20.852C680.603 19.148 681.983 17.804 683.735 16.82C685.511 15.836 687.527 15.344 689.783 15.344C691.775 15.344 693.491 15.704 694.931 16.424C696.395 17.144 697.523 18.152 698.315 19.448C699.131 20.72 699.539 22.244 699.539 24.02C699.539 26.156 699.035 28.076 698.027 29.78C697.019 31.484 695.639 32.828 693.887 33.812C692.135 34.796 690.119 35.288 687.839 35.288ZM688.199 30.68C689.303 30.68 690.275 30.416 691.115 29.888C691.979 29.336 692.651 28.58 693.131 27.62C693.611 26.66 693.851 25.544 693.851 24.272C693.851 22.976 693.467 21.932 692.699 21.14C691.931 20.348 690.851 19.952 689.459 19.952C688.355 19.952 687.371 20.228 686.507 20.78C685.667 21.308 684.995 22.052 684.491 23.012C684.011 23.972 683.771 25.088 683.771 26.36C683.771 27.68 684.155 28.736 684.923 29.528C685.691 30.296 686.783 30.68 688.199 30.68ZM716.398 15.344C718.054 15.344 719.458 15.692 720.61 16.388C721.762 17.06 722.578 18.056 723.058 19.376C723.538 20.696 723.586 22.328 723.202 24.272L721.042 35H715.426L717.514 24.632C717.802 23.216 717.682 22.124 717.154 21.356C716.65 20.588 715.714 20.204 714.346 20.204C712.93 20.204 711.742 20.612 710.782 21.428C709.846 22.244 709.198 23.492 708.838 25.172L706.894 35H701.278L705.13 15.632H710.458L709.342 21.104L708.55 19.448C709.486 18.032 710.638 17 712.006 16.352C713.398 15.68 714.862 15.344 716.398 15.344Z" fill="white"/>
<path d="M463 57.043C505.333 48.7097 616.4 37.043 716 57.043" stroke="#FF26B9" stroke-width="5"/>
</svg>
